<svg aria-hidden="true" style="position: absolute; width: 0; height: 0; overflow: hidden;" version="1.1" xmlns="http://www.w3.org/2000/svg" xmlns:xlink="http://www.w3.org/1999/xlink">
<defs>

<symbol id="report" viewBox="0 0 32 32">
<path fill="#ecf1f8" style="fill: var(--color1, #ecf1f8)" opacity="0.01" d="M0 0h32v32h-32v-32z"></path>
<path fill="#c3cadf" style="fill: var(--color2, #c3cadf)" opacity="0.01" d="M0 0h32v32h-32v-32z"></path>
<path fill="none" stroke="#3e4056" style="stroke: var(--color3, #3e4056)" stroke-linejoin="miter" stroke-linecap="butt" stroke-miterlimit="4" stroke-width="3.2" d="M6.4 27.2c-1.767 0-3.2-1.433-3.2-3.2v-19.2c0-1.767 1.433-3.2 3.2-3.2h16c1.767 0 3.2 1.433 3.2 3.2v1.6"></path>
<path fill="#3e4056" style="fill: var(--color3, #3e4056)" d="M9.6 6.4h9.6c0.884 0 1.6 0.716 1.6 1.6s-0.716 1.6-1.6 1.6h-9.6c-0.884 0-1.6-0.716-1.6-1.6s0.716-1.6 1.6-1.6z"></path>
<path fill="#3e4056" style="fill: var(--color3, #3e4056)" d="M8 14.4c0-0.884 0.716-1.6 1.6-1.6h6.4l-3.2 3.2h-3.2c-0.884 0-1.6-0.716-1.6-1.6v0z"></path>
<path fill="#3e4056" style="fill: var(--color3, #3e4056)" d="M22.229 11.084c1.25-1.25 3.276-1.25 4.525 0l4.525 4.525c1.25 1.25 1.25 3.276 0 4.526l-11.11 11.11c-0.132 0.132-0.305 0.213-0.491 0.231l-5.944 0.559c-2.016 0.19-3.699-1.517-3.481-3.53l0.631-5.827c0.020-0.181 0.101-0.351 0.23-0.48l11.114-11.114zM23.361 14.478c0.625-0.625 1.638-0.625 2.263 0l2.263 2.263c0.625 0.625 0.625 1.638 0 2.263l-1.131 1.131-4.525-4.526 1.131-1.131zM19.967 17.872l-5.656 5.656-0.661 3.304c-0.224 1.12 0.763 2.107 1.883 1.883l3.304-0.661 5.656-5.656-4.525-4.525z"></path>
</symbol>

<symbol id="delete" viewBox="0 0 32 32">
<path fill="none" stroke="#3e4056" style="stroke: var(--color3, #3e4056)" stroke-linejoin="miter" stroke-linecap="butt" stroke-miterlimit="4" stroke-width="4" d="M25.899 25.899c-5.467 5.467-14.332 5.467-19.799 0s-5.467-14.332 0-19.799 14.332-5.467 19.799 0c5.467 5.467 5.467 14.332 0 19.799z"></path>
<path fill="none" stroke="#3e4056" style="stroke: var(--color3, #3e4056)" stroke-linejoin="miter" stroke-linecap="butt" stroke-miterlimit="4" stroke-width="4" d="M10 22l12-12"></path>
<path fill="none" stroke="#3e4056" style="stroke: var(--color3, #3e4056)" stroke-linejoin="miter" stroke-linecap="butt" stroke-miterlimit="4" stroke-width="4" d="M22 22l-12-12"></path>
</symbol>

<symbol id="link" viewBox="0 0 32 32">
<path fill="#3e4056" style="fill: var(--color3, #3e4056)" d="M13.176 4.682c3.903-3.903 10.24-3.893 14.137 0.005 3.905 3.905 3.901 10.241 0.005 14.137l-8.495 8.495c-3.903 3.903-10.24 3.893-14.137-0.005-3.905-3.905-3.901-10.241-0.005-14.138l8.495-8.495zM16.004 7.511l-8.493 8.493c-2.341 2.341-2.339 6.138 0.004 8.481 2.338 2.338 6.14 2.345 8.481 0.004l8.493-8.493c2.341-2.341 2.339-6.138-0.004-8.481-2.338-2.338-6.14-2.345-8.481-0.004zM11.757 6.101l-5.657 5.657 2.828 2.828 5.657-5.657-2.828-2.828zM23.071 17.414l-5.657 5.657 2.828 2.829 5.657-5.657-2.828-2.828zM17.427 11.744c0.774-0.774 2.029-0.773 2.815 0.013 0.781 0.781 0.777 2.052 0.013 2.815l-5.683 5.683c-0.774 0.774-2.029 0.774-2.815-0.013-0.781-0.781-0.776-2.052-0.013-2.815l5.683-5.683z"></path>
</symbol>

<symbol id="cross" viewBox="0 0 32 32">
<path fill="#fff" style="fill: var(--color4, #fff)" d="M17.455 0h-2.909v14.545h-14.545v2.909h14.545v14.545h2.909v-14.545h14.545v-2.909h-14.545v-14.545z"></path>
</symbol>


<symbol id="edit" viewBox="0 0 17 17">
<path fill-rule="evenodd" clip-rule="evenodd" d="M9.89646 1.41421C10.6775 0.633165 11.9438 0.633165 12.7249 1.41421L15.5533 4.24264C16.3344 5.02369 16.3344 6.29002 15.5533 7.07107L8.60488 14.0195C8.52259 14.1018 8.41416 14.1528 8.29829 14.1637L4.5826 14.5143C3.32219 14.6332 2.2698 13.566 2.4064 12.3074L2.8017 8.66504C2.814 8.55174 2.86464 8.44603 2.94523 8.36544L9.89646 1.41421ZM10.6028 3.53631C10.9933 3.14579 11.6265 3.14579 12.017 3.53631L13.4312 4.95053C13.8217 5.34105 13.8217 5.97422 13.4312 6.36474L12.7233 7.07263L9.89489 4.2442L10.6028 3.53631ZM8.4799 5.6592L4.94292 9.19617L4.52908 11.2615C4.38882 11.9614 5.00609 12.5787 5.70606 12.4384L7.77135 12.0246L11.3083 8.48762L8.4799 5.6592Z" fill="#F05D63"/>
</symbol>


<symbol id="medium" viewBox="0 0 32 32">
<path fill="#eff3f6" style="fill: var(--color6, #eff3f6)" opacity="0.01" d="M0 0h32v32h-32v-32z"></path>
<path fill="#3e3f58" style="fill: var(--color7, #3e3f58)" d="M9.897 11.652c0.020-0.201-0.055-0.4-0.202-0.535l-1.494-1.842v-0.275h4.639l3.585 8.048 3.152-8.048h4.422v0.275l-1.277 1.253c-0.11 0.086-0.165 0.227-0.142 0.367v9.209c-0.023 0.14 0.032 0.281 0.142 0.367l1.247 1.253v0.275h-6.274v-0.275l1.292-1.284c0.127-0.13 0.127-0.168 0.127-0.367v-7.444l-3.593 9.339h-0.486l-4.183-9.339v6.259c-0.035 0.263 0.050 0.528 0.232 0.718l1.681 2.086v0.275h-4.766v-0.275l1.681-2.086c0.18-0.191 0.26-0.457 0.217-0.718v-7.238z"></path>
</symbol>

<symbol id="share" viewBox="0 0 32 32">
<path opacity="0.01" d="M0 0H32V32H0V0Z" fill="#EFF3F6"/>
<path fill-rule="evenodd" clip-rule="evenodd" d="M20 13H12C11.4477 13 11 13.4477 11 14V20C11 20.5523 11.4477 21 12 21H20C20.5523 21 21 20.5523 21 20V14C21 13.4477 20.5523 13 20 13ZM12 11C10.3431 11 9 12.3431 9 14V20C9 21.6569 10.3431 23 12 23H20C21.6569 23 23 21.6569 23 20V14C23 12.3431 21.6569 11 20 11H12Z" fill="#3E4056"/>
<path fill-rule="evenodd" clip-rule="evenodd" d="M10.2111 9.53736C10.7908 7.94464 12.5708 7.20372 14.1345 7.77285C14.8784 8.04358 15.6322 8.62978 16.1531 9.28997C16.6385 9.90532 17.1622 10.9058 16.7889 11.9315C16.4156 12.9572 15.3713 13.387 14.6039 13.5463C13.7805 13.7173 12.8262 13.6817 12.0824 13.411C10.5187 12.8419 9.63136 11.1301 10.2111 9.53736ZM13.4505 9.65223C12.8517 9.43431 12.2663 9.73821 12.0904 10.2214C11.9146 10.7046 12.1677 11.3137 12.7664 11.5316C13.1038 11.6544 13.673 11.6969 14.1973 11.5881C14.7775 11.4676 14.9051 11.2597 14.9095 11.2475C14.914 11.2352 14.9499 10.994 14.5829 10.5287C14.2512 10.1083 13.7878 9.77502 13.4505 9.65223Z" fill="#3E4056"/>
<path fill-rule="evenodd" clip-rule="evenodd" d="M21.7889 9.53736C21.2092 7.94464 19.4292 7.20372 17.8655 7.77285C17.1216 8.04358 16.3678 8.62978 15.8469 9.28997C15.3615 9.90532 14.8378 10.9058 15.2111 11.9315C15.5844 12.9572 16.6287 13.387 17.3961 13.5463C18.2195 13.7173 19.1738 13.6817 19.9176 13.411C21.4813 12.8419 22.3686 11.1301 21.7889 9.53736ZM18.5495 9.65223C19.1483 9.43431 19.7337 9.73821 19.9096 10.2214C20.0854 10.7046 19.8323 11.3137 19.2336 11.5316C18.8962 11.6544 18.327 11.6969 17.8027 11.5881C17.2225 11.4676 17.0949 11.2597 17.0905 11.2475C17.086 11.2352 17.0501 10.994 17.4171 10.5287C17.7488 10.1083 18.2122 9.77502 18.5495 9.65223Z" fill="#3E4056"/>
<path d="M15 12H17V22H15V12Z" fill="#3E4056"/>
<path d="M8 13C8 11.8954 8.89543 11 10 11H22C23.1046 11 24 11.8954 24 13V16C24 16.5523 23.5523 17 23 17H9C8.44772 17 8 16.5523 8 16V13Z" fill="white"/>
<path fill-rule="evenodd" clip-rule="evenodd" d="M22 13H10V15H22V13ZM10 11C8.89543 11 8 11.8954 8 13V16C8 16.5523 8.44772 17 9 17H23C23.5523 17 24 16.5523 24 16V13C24 11.8954 23.1046 11 22 11H10Z" fill="#3E4056"/>
</symbol>


<symbol id="notification" viewBox="0 0 32 32">
<rect opacity="0.01" width="32" height="32" fill="#EFF3F6"/>
<path fill-rule="evenodd" clip-rule="evenodd" d="M9 21.6V20.8L10.6471 19.2L10.6471 14.8C10.6471 13.568 11.0884 12.4367 11.8267 11.5463C12.5602 10.6618 13.5868 10.0151 14.7647 9.744V9.2C14.7647 8.536 15.3165 8 16 8C16.6835 8 17.2353 8.536 17.2353 9.2V9.744C19.6065 10.2898 21.3529 12.3515 21.3529 14.8V19.2H19.3529V14.8C19.3529 13.336 18.3023 12.0419 16.7867 11.693L16 11.512L15.2133 11.693C13.6977 12.0419 12.6471 13.336 12.6471 14.8V19.6H20.9644L21.3529 19.2L23 20.8V21.6H9ZM17.6471 22.4H14.3529C14.3529 22.8766 14.5703 23.3062 14.9135 23.6C15.1194 23.7762 15.3705 23.9035 15.6471 23.9628C15.7608 23.9871 15.879 24 16 24C16.121 24 16.2392 23.9871 16.3529 23.9628C16.6295 23.9035 16.8806 23.7762 17.0865 23.6C17.4297 23.3062 17.6471 22.8766 17.6471 22.4Z" fill="#3E4056"/>
</symbol>

<symbol id="view" viewBox="0 0 16 16">
<rect opacity="0.01" width="16" height="16" fill="#ECF1F8"/>
<path fill-rule="evenodd" clip-rule="evenodd" d="M15 8C14.9929 8.70812 14.6514 9.37509 14.0711 9.81411V9.81411L7.96 14.4957V14.4957C7.22814 15.0496 6.23091 15.1563 5.38942 14.7708C4.54794 14.3853 4.00892 13.5748 4 12.6816V3.31842C4.00892 2.4252 4.54794 1.61471 5.38942 1.22921C6.23091 0.843723 7.22814 0.950443 7.96 1.50431V1.50431L14.0711 6.18589V6.18589C14.6514 6.62491 14.9929 7.29188 15 8V8Z" fill="#3E4056"/>
</symbol>

<symbol id="like" viewBox="0 0 16 14">
<path fill-rule="evenodd" clip-rule="evenodd" d="M8 8.09328C7.17963 9.25452 5.90782 10 4.48 10C2.00576 10 0 7.76142 0 5C0 2.23858 2.00576 0 4.48 0C5.90782 0 7.17963 0.74548 8 1.90672C8.82038 0.74548 10.0922 0 11.52 0C13.9942 0 16 2.23858 16 5C16 7.76142 13.9942 10 11.52 10C10.0922 10 8.82038 9.25452 8 8.09328Z" fill="#ED5267"/>
<path fill-rule="evenodd" clip-rule="evenodd" d="M8 14C10.7614 14 16 9 16 5C16 5 0 5 0 5C0 9 5.23858 14 8 14Z" fill="#ED5267"/>
</symbol>

<symbol id="dots" viewBox="0 0 24 24">
<rect opacity="0.01" width="24" height="24" fill="#ECF1F8"/>
<path d="M12 14C13.1046 14 14 13.1046 14 12C14 10.8954 13.1046 10 12 10C10.8954 10 10 10.8954 10 12C10 13.1046 10.8954 14 12 14ZM12 8C13.1046 8 14 7.10457 14 6C14 4.89543 13.1046 4 12 4C10.8954 4 10 4.89543 10 6C10 7.10457 10.8954 8 12 8ZM14 18C14 19.1046 13.1046 20 12 20C10.8954 20 10 19.1046 10 18C10 16.8954 10.8954 16 12 16C13.1046 16 14 16.8954 14 18Z" fill="#3E4056"/>
<path d="M14 6C14 7.10457 13.1046 8 12 8C10.8954 8 10 7.10457 10 6C10 4.89543 10.8954 4 12 4C13.1046 4 14 4.89543 14 6ZM14 12C14 13.1046 13.1046 14 12 14C10.8954 14 10 13.1046 10 12C10 10.8954 10.8954 10 12 10C13.1046 10 14 10.8954 14 12ZM12 20C13.1046 20 14 19.1046 14 18C14 16.8954 13.1046 16 12 16C10.8954 16 10 16.8954 10 18C10 19.1046 10.8954 20 12 20Z" fill="#3E4056"/>
<path d="M12 14C13.1046 14 14 13.1046 14 12C14 10.8954 13.1046 10 12 10C10.8954 10 10 10.8954 10 12C10 13.1046 10.8954 14 12 14ZM12 8C13.1046 8 14 7.10457 14 6C14 4.89543 13.1046 4 12 4C10.8954 4 10 4.89543 10 6C10 7.10457 10.8954 8 12 8ZM14 18C14 19.1046 13.1046 20 12 20C10.8954 20 10 19.1046 10 18C10 16.8954 10.8954 16 12 16C13.1046 16 14 16.8954 14 18Z" fill="#3E4056"/>
</symbol>

<symbol id="logo" viewBox="0 0 50 23"><path fill-rule="evenodd" clip-rule="evenodd" d="M5.071 1.088c1.66 0 2.964.788 3.911 2.365.134.177.213.397.213.635 0 .586-.477 1.06-1.066 1.06-.484 0-.893-.322-1.023-.762-.287-.456-.563-.76-.826-.913-.317-.202-.727-.303-1.228-.303-.615 0-1.126.174-1.532.52a1.61 1.61 0 0 0-.608 1.288c0 .713.532 1.287 1.598 1.722l1.465.596c1.193.48 2.065 1.065 2.617 1.756.552.69.828 1.537.828 2.54 0 1.344-.45 2.455-1.351 3.332-.908.883-2.033 1.325-3.378 1.325-1.275 0-2.328-.376-3.16-1.127-.817-.75-1.328-1.807-1.531-3.17l.02-.004a1.136 1.136 0 0 1 1.122-1.35c.63 0 1.142.51 1.142 1.136v.011c.105.706.27 1.204.494 1.494.457.631 1.123.946 1.998.946.692 0 1.266-.23 1.723-.69.456-.46.685-1.044.685-1.751 0-.284-.04-.544-.12-.78a1.978 1.978 0 0 0-.37-.654 2.962 2.962 0 0 0-.652-.558 6.29 6.29 0 0 0-.952-.497l-1.417-.587C1.662 7.823.657 6.586.657 4.958c0-1.097.421-2.015 1.265-2.753.844-.745 1.893-1.117 3.15-1.117Zm7.671 21.382c.54 0 .996-.364 1.131-.86l.617-1.47 6.937-13.374h-2.416l-2.646 5.3-2.835-5.3h-2.483l4.167 7.505-3.39 6.307a1.16 1.16 0 0 0-.2.372l-.026.05h.012a1.17 1.17 0 0 0 1.132 1.47ZM23.796 6.766h2.15v.852c.75-.738 1.593-1.107 2.532-1.107 1.078 0 1.918.337 2.521 1.012.52.574.78 1.511.78 2.81v5.65h-2.15v-5.148c0-.908-.127-1.536-.38-1.883-.248-.353-.698-.53-1.352-.53-.71 0-1.214.234-1.513.7-.291.461-.437 1.266-.437 2.414v4.447h-2.15V6.766Zm13.806 1.988v7.23h-2.14v-7.23h-.914V6.766h.913V3.388h2.141v3.378h1.665v1.988h-1.665ZM42.027 0h2.14v7.533C44.93 6.85 45.77 6.51 46.69 6.51c1.047 0 1.884.337 2.512 1.012.533.587.799 1.524.799 2.81v5.65h-2.14v-5.45c0-.738-.132-1.273-.396-1.604-.263-.332-.686-.497-1.27-.497-.748 0-1.275.23-1.58.69-.297.467-.447 1.269-.447 2.404v4.457h-2.14V0Z" fill="#3E4056"/></symbol>
</defs>
</svg>















